<svg width="115" height="115" viewBox="0 0 115 115" fill="none" xmlns="http://www.w3.org/2000/svg">
<path fill-rule="evenodd" clip-rule="evenodd" d="M114.57 57.285C114.57 88.9226 88.9226 114.57 57.285 114.57C25.6474 114.57 0 88.9226 0 57.285C0 44.6458 4.0933 32.9627 11.0266 23.4889C12.6391 25.2481 14.956 26.3511 17.5305 26.3511C22.402 26.3511 26.3511 22.402 26.3511 17.5306C26.3511 14.956 25.2481 12.6391 23.4888 11.0266C32.9626 4.09332 44.6458 0 57.285 0C88.9226 0 114.57 25.6474 114.57 57.285ZM95.1399 57.285C95.1399 78.1917 78.1917 95.14 57.2849 95.14C36.3782 95.14 19.4299 78.1917 19.4299 57.285C19.4299 36.3783 36.3782 19.43 57.2849 19.43C78.1917 19.43 95.1399 36.3783 95.1399 57.285Z" fill="#456DE6" fill-opacity="0.8"/>
</svg>
