<svg xmlns="http://www.w3.org/2000/svg" width="150" height="50" viewBox="0,0,150,50"><path d="M7 17 C66 10,67 4,147 3" stroke="#666" fill="none"/><path fill="#333" d="M30.80 30.80L30.94 30.94L30.93 30.94Q30.78 29.69 28.84 28.96L28.94 29.06L28.85 28.97Q28.43 28.85 27.89 28.85L27.76 28.72L27.90 28.86Q26.40 28.73 25.33 29.30L25.39 29.36L25.33 29.30Q24.05 30.11 24.16 31.33L24.04 31.21L24.05 31.22Q24.45 34.09 24.30 36.34L24.37 36.40L24.35 36.38Q24.25 38.87 23.52 41.38L23.34 41.20L23.38 41.24Q21.23 41.72 20.05 42.14L20.18 42.27L20.18 42.27Q21.80 38.67 21.80 34.68L21.65 34.52L21.67 34.54Q21.77 29.20 19.18 24.75L19.17 24.73L19.17 24.74Q20.32 25.16 22.72 25.88L22.80 25.97L22.82 25.98Q23.04 26.63 23.42 28.15L23.51 28.24L23.39 28.12Q24.73 26.03 28.61 26.11L28.60 26.10L28.61 26.10Q30.17 26.22 30.97 26.33L31.02 26.38L31.03 26.39Q33.86 26.63 33.93 28.65L34.04 28.75L33.94 28.66Q34.08 29.67 33.89 30.70L33.78 30.59L33.83 30.63Q33.29 33.07 33.49 36.08L33.62 36.22L33.48 36.08Q33.76 39.06 34.75 41.61L34.61 41.47L34.73 41.59Q33.00 41.15 31.29 41.00L31.28 40.99L31.28 41.00Q30.78 38.59 30.71 35.93L30.74 35.96L30.69 35.91Q30.65 33.21 30.88 30.88ZM30.81 41.24L30.84 41.28L30.85 41.29Q31.76 41.40 33.06 41.63L33.07 41.65L33.35 42.60L33.39 42.65Q33.49 43.06 33.72 43.59L33.80 43.66L33.86 43.73Q35.99 43.99 38.69 45.17L38.83 45.30L38.87 45.35Q36.34 42.06 35.65 38.25L35.72 38.31L35.77 38.37Q35.36 36.17 35.47 32.47L35.55 32.55L35.52 32.52Q35.53 32.23 35.57 31.43L35.51 31.36L35.53 31.38Q35.70 30.87 35.62 30.38L35.48 30.23L35.49 30.24Q35.42 28.62 34.32 28.12L34.24 28.04L34.41 28.22Q34.08 27.20 33.32 26.59L33.43 26.69L33.33 26.60Q31.66 25.61 28.61 25.69L28.71 25.78L28.60 25.68Q26.80 25.78 25.96 25.97L26.01 26.01L25.95 25.96Q24.43 26.22 23.47 27.13L23.52 27.19L23.61 27.27Q23.49 26.74 23.11 25.71L23.05 25.64L23.09 25.68Q20.31 25.03 18.48 24.04L18.33 23.90L18.46 24.03Q21.35 28.75 21.35 34.49L21.51 34.65L21.48 34.62Q21.40 38.92 19.50 42.77L19.54 42.80L19.50 42.77Q20.29 42.57 21.59 42.19L21.59 42.19L21.56 42.17Q20.98 43.33 20.44 44.32L20.52 44.40L20.48 44.36Q21.88 43.89 25.42 43.32L25.42 43.32L25.37 43.27Q26.37 38.14 26.25 33.30L26.25 33.30L26.32 33.36Q26.26 32.51 27.44 31.79L27.48 31.83L27.38 31.73Q28.55 31.22 29.66 31.11L29.61 31.06L29.56 31.01Q30.12 31.07 30.53 31.26L30.38 31.11L30.40 31.13Q30.30 33.73 30.34 36.28L30.30 36.24L30.44 36.38Q30.45 38.87 30.95 41.38Z"/><path fill="#333" d="M109.81 49.72L109.80 49.71L109.74 49.65Q112.52 45.66 115.42 39.45L115.42 39.45L115.42 39.45Q112.29 32.90 106.20 24.83L106.23 24.86L106.39 25.02Q108.26 26.13 111.04 26.78L111.02 26.75L111.07 26.81Q114.56 31.44 116.99 36.65L116.99 36.65L116.99 36.65Q119.09 31.29 122.18 26.87L122.21 26.91L122.14 26.83Q124.40 26.54 126.49 25.74L126.53 25.78L126.48 25.73Q123.02 29.51 119.56 36.93L119.67 37.04L116.75 42.96L116.83 43.04Q115.36 46.13 113.61 48.76L113.65 48.80L113.53 48.68Q111.11 49.04 109.66 49.58ZM115.89 50.97L115.89 50.96L115.84 50.92Q117.50 47.97 118.95 44.70L119.01 44.75L121.77 38.46L121.74 38.43Q125.30 30.45 128.61 26.45L128.51 26.35L128.52 26.36Q127.32 27.18 125.42 27.87L125.31 27.76L126.37 26.38L126.42 26.43Q126.99 25.75 127.60 25.07L127.51 24.97L127.51 24.98Q124.84 26.04 121.99 26.49L122.10 26.60L122.06 26.57Q119.26 30.43 117.32 34.89L117.32 34.88L117.42 34.99Q115.74 31.63 113.95 28.81L113.94 28.80L113.86 28.72Q113.69 28.74 113.33 28.70L113.32 28.70L113.44 28.82Q113.01 28.71 112.82 28.71L112.76 28.65L112.74 28.63Q112.09 27.48 111.14 26.34L111.03 26.24L111.08 26.28Q107.95 25.67 105.21 23.95L105.22 23.97L105.26 24.00Q111.38 31.87 115.07 39.48L115.19 39.60L115.23 39.64Q112.98 44.63 108.91 50.27L108.96 50.32L108.94 50.30Q109.68 49.93 110.48 49.78L110.56 49.86L112.04 49.37L112.20 49.53Q111.41 50.06 110.23 51.70L110.38 51.86L110.36 51.83Q112.65 51.23 115.92 51.00Z"/><path fill="#333" d="M90.35 41.25L90.44 41.33L87.26 41.01L87.28 41.03Q84.98 41.01 84.18 40.90L84.11 40.83L84.19 40.91Q82.31 40.51 81.13 39.64L81.17 39.68L81.18 39.69Q79.92 38.31 79.69 34.96L79.56 34.83L79.53 34.80Q79.50 34.32 79.43 33.10L79.42 33.09L79.59 33.26Q79.57 32.82 79.49 31.72L79.47 31.70L79.51 31.73Q79.47 30.89 79.50 30.17L79.47 30.13L79.40 30.06Q79.58 28.11 80.61 27.35L80.65 27.39L80.57 27.32Q82.63 26.29 87.46 26.06L87.39 25.99L87.40 26.00Q89.50 25.96 90.30 25.96L90.33 26.00L90.23 25.90Q91.67 25.85 93.04 26.16L93.13 26.25L93.16 26.27Q92.53 27.47 92.00 29.30L91.98 29.29L91.93 29.24Q91.52 29.40 91.03 29.36L91.08 29.41L91.09 29.42Q90.97 29.38 90.44 29.27L90.36 29.18L89.33 28.88L89.45 29.00Q88.31 28.66 87.70 28.70L87.79 28.78L87.83 28.83Q83.10 28.89 82.49 31.71L82.32 31.54L82.49 31.71Q82.24 32.87 82.31 33.82L82.24 33.74L82.27 33.78Q82.27 36.21 83.50 37.29L83.51 37.30L83.56 37.35Q84.92 38.55 87.51 38.59L87.42 38.50L87.49 38.58Q88.89 38.53 89.61 38.22L89.58 38.19L90.60 37.69L90.69 37.78Q91.17 37.50 91.75 37.43L91.77 37.45L91.83 37.51Q92.06 39.30 92.44 40.60L92.41 40.56L92.32 40.47Q92.20 40.96 90.41 41.30ZM93.66 44.25L93.52 44.11L93.67 44.26Q94.06 44.30 94.89 44.38L94.91 44.39L94.88 44.37Q95.44 44.32 95.78 43.75L95.87 43.83L95.80 43.77Q94.65 41.74 94.16 39.65L94.14 39.63L94.17 39.66Q93.79 39.59 93.34 39.59L93.26 39.51L93.27 39.52Q92.95 39.62 92.57 39.81L92.42 39.66L92.56 39.80Q92.07 38.40 91.92 36.99L91.94 37.01L92.04 37.11Q91.46 37.07 90.25 37.64L90.07 37.47L90.07 37.46Q89.04 38.22 88.54 38.22L88.40 38.08L88.44 38.12Q88.03 38.20 87.42 38.16L87.45 38.19L87.44 38.18Q86.46 38.08 84.48 37.51L84.48 37.51L84.42 37.45Q84.08 36.72 84.11 35.58L84.27 35.74L84.21 35.68Q84.40 31.45 89.35 30.91L89.38 30.95L89.35 30.92Q90.00 30.88 91.37 31.22L91.37 31.22L91.33 31.19Q92.80 31.62 93.52 31.59L93.57 31.64L93.50 31.57Q93.87 29.27 94.56 27.44L94.54 27.43L94.54 27.43Q94.25 27.40 93.87 27.33L93.78 27.24L92.97 27.12L93.04 27.19Q93.16 26.62 93.54 25.74L93.56 25.76L93.65 25.86Q92.02 25.40 90.45 25.40L90.45 25.40L90.62 25.56Q88.06 25.41 83.69 25.79L83.80 25.90L83.73 25.83Q81.90 26.09 80.34 27.08L80.34 27.09L80.26 27.00Q79.15 28.06 79.15 29.96L79.04 29.86L79.05 29.87Q78.97 30.21 79.09 31.43L79.14 31.48L79.18 31.52Q79.23 32.53 79.19 33.13L79.11 33.05L79.13 33.07Q79.28 35.08 80.00 38.81L79.92 38.73L79.96 38.77Q80.26 39.53 80.76 40.03L80.78 40.05L80.98 40.25L81.02 40.25L81.05 40.28Q82.19 42.52 86.11 43.13L86.02 43.05L86.01 43.04Q89.29 43.65 91.96 43.92L91.81 43.77L91.90 43.86Q92.72 43.96 93.63 44.22Z"/><path fill="#444" d="M54.12 26.73L54.19 26.80L54.12 26.74Q56.09 27.07 57.92 27.07L57.89 27.04L57.74 26.89Q59.62 26.98 61.45 26.83L61.51 26.90L61.50 26.88Q61.38 27.52 61.38 28.24L61.34 28.20L61.41 29.61L61.35 29.55Q58.89 29.45 54.13 29.57L54.24 29.67L54.26 29.69Q54.29 35.66 53.15 40.64L53.16 40.66L53.14 40.64Q50.89 41.28 49.41 42.08L49.30 41.98L49.35 42.03Q51.62 35.16 51.36 28.05L51.52 28.21L51.41 28.10Q51.10 20.90 48.43 14.23L48.45 14.25L48.49 14.29Q52.15 16.80 56.90 17.03L56.89 17.01L57.01 17.14Q61.61 17.24 65.76 15.49L65.81 15.55L65.79 15.53Q65.40 16.24 65.17 17.04L65.25 17.12L64.79 18.75L64.80 18.76Q62.07 19.83 59.10 19.98L59.02 19.91L59.05 19.94Q56.10 20.07 53.24 19.35L53.28 19.38L53.27 19.37Q53.99 22.79 54.18 26.79ZM66.38 14.79L66.42 14.82L66.30 14.70Q61.81 16.95 56.94 16.65L57.01 16.72L56.96 16.67Q51.64 16.37 47.91 13.52L47.88 13.49L47.81 13.42Q50.65 20.34 50.96 27.95L51.00 27.99L51.02 28.01Q51.47 36.08 48.96 42.85L48.98 42.87L48.85 42.75Q49.53 42.36 50.90 41.71L50.90 41.71L50.96 41.77Q50.61 42.38 50.04 43.90L50.13 43.99L50.21 44.06Q52.53 43.00 55.42 42.51L55.27 42.35L55.39 42.47Q55.94 37.54 56.13 31.83L56.08 31.78L56.21 31.91Q57.88 31.75 59.71 31.75L59.68 31.72L59.68 31.72Q61.65 31.91 63.48 32.10L63.32 31.94L63.33 31.95Q63.28 31.06 63.28 30.14L63.20 30.06L63.28 28.24L63.33 28.30Q62.50 28.34 61.67 28.34L61.68 28.35L61.73 28.40Q61.74 27.54 61.82 26.51L61.70 26.40L61.78 26.47Q60.32 26.58 58.92 26.58L58.89 26.55L58.90 26.56Q57.57 26.64 56.20 26.60L56.26 26.67L56.13 24.41L56.13 24.40Q56.07 23.28 55.96 22.21L55.95 22.21L55.95 22.21Q56.89 22.24 57.88 22.24L57.93 22.28L57.97 22.32Q62.61 22.20 66.22 20.30L66.41 20.49L66.36 20.43Q66.88 18.63 67.79 16.00L67.80 16.01L67.78 15.99Q66.38 16.73 65.59 17.07L65.63 17.11L65.65 17.13Q65.88 16.34 66.37 14.78Z"/></svg>